# xmcd
#
# Track frame offsets:
#	150
#	4363
#	25975
#	44346
#	58526
#	77484
#	92046
#	109584
#	124076
#	140035
#	163238
#	178897
#	195106
#	222720
#
# Disc length: 3255 seconds
#
# Revision: 1
# Processed by: cddbd v1.5.2PL0 Copyright (c) Steve Scherf et al.
# Submitted via: EasyCDDAExtractor 11.5.0.1
#
DISCID=c40cb50e
DTITLE=BROWN EYES - THE THINGS NEEDED FOR THE SAME PURPOSE AND 5 OBJETS
DYEAR=2008
DGENRE=R&B
TTITLE0=YOUR EYES
TTITLE1=가지마 가지마
TTITLE2=LIKE A FLAME
TTITLE3=이 순간 이대로
TTITLE4=너 때문에
TTITLE5=LET'S GET DOWN
TTITLE6=SUMMER PASSION
TTITLE7=PIANO NOCTURN
TTITLE8=DON'T YOU WORRY
TTITLE9=사랑을 말해요
TTITLE10=LET IT GO
TTITLE11=한걸을
TTITLE12=루아흐(RUACH)
TTITLE13=가지마 가지마(MR)-BONUS TRACK
EXTD=
EXTT0=
EXTT1=
EXTT2=
EXTT3=
EXTT4=
EXTT5=
EXTT6=
EXTT7=
EXTT8=
EXTT9=
EXTT10=
EXTT11=
EXTT12=
EXTT13=
PLAYORDER=
